<?xml version="1.0" encoding="utf-8"?>
<!-- Generator: Adobe Illustrator 17.0.2, SVG Export Plug-In . SVG Version: 6.00 Build 0)  -->
<!DOCTYPE svg PUBLIC "-//W3C//DTD SVG 1.1//EN" "http://www.w3.org/Graphics/SVG/1.1/DTD/svg11.dtd">
<svg version="1.1" id="Calque_1" xmlns="http://www.w3.org/2000/svg" xmlns:xlink="http://www.w3.org/1999/xlink" x="0px" y="0px"
	 width="350px" height="350px" viewBox="0 0 350 350" enable-background="new 0 0 350 350" xml:space="preserve">
<path id="path2985" d="M266.809,21.737c-12.459-7.174-28.075-4.016-36.894,6.749C161.125,4.36,82.76,31.785,45.063,97.255
	C2.489,171.196,27.916,265.646,101.857,308.22c73.944,42.576,168.391,17.147,210.965-56.794
	c37.697-65.47,22.072-147.012-33.332-194.393C284.377,44.001,279.271,28.912,266.809,21.737z M225.142,37.021
	c-4.732,12.976,0.377,27.793,12.759,34.922s27.757,4.111,36.608-6.498c50.903,44.571,64.998,120.289,29.948,181.164
	c-39.913,69.32-128.46,93.16-197.783,53.245c-69.318-39.912-93.16-128.46-53.245-197.783
	C88.479,41.197,161.04,15.374,225.142,37.021z"/>
<path id="path3006" d="M229.146,203.247c-15.966,27.729-51.384,37.261-79.11,21.297s-37.261-51.384-21.297-79.11
	s51.384-37.261,79.11-21.297S245.112,175.518,229.146,203.247z"/>
</svg>
