<?xml version="1.0" encoding="utf-8"?>
<!-- Generator: Adobe Illustrator 17.0.2, SVG Export Plug-In . SVG Version: 6.00 Build 0)  -->
<!DOCTYPE svg PUBLIC "-//W3C//DTD SVG 1.1//EN" "http://www.w3.org/Graphics/SVG/1.1/DTD/svg11.dtd">
<svg version="1.1" id="Calque_1" xmlns="http://www.w3.org/2000/svg" xmlns:xlink="http://www.w3.org/1999/xlink" x="0px" y="0px"
	 width="350px" height="350px" viewBox="0 0 350 350" enable-background="new 0 0 350 350" xml:space="preserve">
<g id="Your_Icon">
	<g>
		<g>
			<path stroke="#080707" stroke-miterlimit="10" d="M162.839,219.61c-5.52-27.624,1.599-51.153,21.728-70.82
				c-2.669-3.336-5.371-6.716-8.084-10.096c-5.113-6.373-10.249-12.739-15.333-19.149c-0.634-0.798-1.144-1.092-2.236-0.768
				c-25.545,7.562-52.133-8.93-56.732-35.153c-4.282-24.43,12.075-47.75,36.424-51.924c24.702-4.238,48.141,12.366,51.965,36.904
				c1.703,10.965-0.317,21.262-6.123,30.777c-0.153,0.253-0.309,0.518-0.544,0.909c2.423,3.026,4.875,6.101,7.327,9.157
				c6.034,7.521,12.09,15.02,18.079,22.582c0.958,1.219,1.685,1.562,3.336,1.133c29.037-7.584,54.123-0.701,74.621,21.292
				c10.171,10.905,15.847,24.151,17.711,39.006c4.644,36.867-19.537,71.785-55.729,79.433c-27.535,5.818-51.108-2.042-70.283-22.723
				c-0.641-0.693-1.07-0.79-1.912-0.406c-17.36,7.797-34.728,15.579-52.118,23.32c-1.107,0.496-1.45,1.155-1.472,2.266
				c-0.403,20.271-14.8,37.78-34.646,42.446c-24.449,5.74-49.416-10.368-54.037-35.007c-4.61-24.598,10.596-47.627,35.194-52.558
				c15.139-3.034,28.552,1.092,39.886,11.677c0.693,0.649,1.196,0.965,2.191,0.514c16.663-7.502,33.349-14.967,50.034-22.44
				C162.366,219.871,162.623,219.722,162.839,219.61z M177.732,92.524c7.133-12.56,5.874-31.579-8.169-43.796
				c-13.417-11.665-33.449-11.412-47.202,0.656c-13.059,11.464-15.538,31.798-5.579,46.378c4.968,7.275,11.721,12.15,20.237,14.472
				c5.501,1.509,11.058,1.707,16.891,0.395c-1.875-2.341-3.593-4.443-5.27-6.586c-4.409-5.624-4.353-12.101,0.212-17.569
				c5.904-7.066,17.565-9.578,24.061,0.015C174.333,88.615,176.088,90.501,177.732,92.524z M101.736,246.959
				c-11.96-10.7-30.915-11.319-44.142-1.58c-13.663,10.067-18.385,28.385-11.248,43.691c7.212,15.482,24.117,23.722,40.717,19.727
				c17.204-4.133,26.301-19.239,26.942-30.721c-1.845,0.835-3.638,1.621-5.415,2.423c-3.854,1.748-7.819,2.095-11.732,0.414
				c-5.587-2.389-8.699-6.936-10.093-12.642c-1.957-8.009,1.062-15.616,9.057-18.653C97.789,248.882,99.671,247.902,101.736,246.959
				z M165.504,228.499c-0.119,0.034-0.268,0.071-0.403,0.13c-22.101,9.884-44.194,19.786-66.303,29.659
				c-2.423,1.085-3.507,2.929-3.488,5.482c0.015,2.281,0.723,4.375,2.072,6.213c2.177,2.956,4.402,3.518,7.767,2.02
				c20.815-9.317,41.626-18.635,62.434-27.967c1.636-0.727,3.272-1.468,4.759-2.136
				C170.032,237.373,167.796,232.982,165.504,228.499z M201.734,137.173c-0.22-0.294-0.406-0.566-0.619-0.839
				c-11.975-14.908-23.983-29.801-35.872-44.783c-1.8-2.266-3.783-2.885-6.72-1.312c-0.917,0.488-1.763,1.193-2.478,1.953
				c-1.979,2.083-2.024,3.921-0.22,6.168c9.709,12.128,19.44,24.248,29.156,36.379c2.244,2.78,4.487,5.557,6.709,8.307
				C195.085,141.064,198.376,139.138,201.734,137.173z"/>
		</g>
	</g>
</g>
</svg>
