<?xml version="1.0" encoding="utf-8"?>
<!-- Generator: Adobe Illustrator 17.0.2, SVG Export Plug-In . SVG Version: 6.00 Build 0)  -->
<!DOCTYPE svg PUBLIC "-//W3C//DTD SVG 1.1//EN" "http://www.w3.org/Graphics/SVG/1.1/DTD/svg11.dtd">
<svg version="1.1" id="Calque_1" xmlns="http://www.w3.org/2000/svg" xmlns:xlink="http://www.w3.org/1999/xlink" x="0px" y="0px"
	 width="350px" height="350px" viewBox="0 0 350 350" enable-background="new 0 0 350 350" xml:space="preserve">
<path d="M15.248,224.57c-7.015-37.149,4.538-69.283,29.431-81.865c16.795-8.489,40.562-11.463,63.546-14.339
	c17.319-2.168,33.68-4.215,46.066-8.401c9.723-3.286,20.933-14.475,32.801-26.321c13.168-13.144,28.093-28.041,45.13-36.425
	c20.315-9.998,39.959-9.117,60.054,2.691c18.863,11.084,34.576,34.632,39.101,58.596c2.658,14.078,1.375,27.43-3.712,38.611
	c-10.822,23.788-50.858,103.363-111.708,128.584c-30.691,12.721-71.275,17.53-108.561,12.863
	c-38.742-4.849-67.477-18.728-78.838-38.08C22.262,249.755,17.659,237.336,15.248,224.57z M321.55,120.36
	c-4.021-21.293-17.821-42.122-34.341-51.829c-17.204-10.11-33.274-10.854-50.572-2.341c-15.556,7.656-29.86,21.934-42.48,34.531
	c-13.27,13.245-24.729,24.684-36.663,28.717c-13.344,4.51-30.191,6.618-48.027,8.85c-22.138,2.77-45.03,5.635-60.276,13.341
	c-17.057,8.622-31.129,33.946-24.116,71.085c2.2,11.65,6.386,22.958,12.108,32.704c9.632,16.408,36.344,28.826,71.455,33.221
	c35.642,4.46,74.33-0.092,103.491-12.178c23.452-9.72,46.384-29.407,68.16-58.512c19.347-25.857,32.284-51.808,38.274-64.975
	C322.791,143.679,323.824,132.401,321.55,120.36z"/>
<path d="M31.595,219.583c-0.746-4.292-1.123-8.618-1.122-12.857l10.001,0.004c-0.002,3.665,0.326,7.414,0.973,11.142L31.595,219.583
	z M34.805,232.023l9.454-3.26c1.219,3.534,2.728,7.02,4.485,10.359l-8.848,4.658C37.901,239.992,36.188,236.036,34.805,232.023z
	 M31.709,193.779c0.858-4.388,2.166-8.608,3.886-12.543l9.162,4.006c-1.428,3.266-2.515,6.784-3.234,10.456L31.709,193.779z
	 M47.273,254.812l7.413-6.713c2.218,2.449,4.991,4.779,8.242,6.925l-5.508,8.347C53.468,260.763,50.054,257.884,47.273,254.812z
	 M42.324,169.825c2.721-3.525,5.89-6.688,9.418-9.401l6.096,7.926c-2.846,2.189-5.403,4.741-7.598,7.586L42.324,169.825z
	 M68.743,269.494l4.06-9.139c3.3,1.466,6.917,2.813,10.751,4.003l-2.965,9.55C76.384,272.603,72.398,271.118,68.743,269.494z
	 M63.148,153.715c3.591-1.577,7.557-2.936,12.124-4.154l2.576,9.663c-4.012,1.07-7.604,2.297-10.678,3.647L63.148,153.715z
	 M92.697,277.057l2.095-9.777c3.694,0.791,7.569,1.47,11.519,2.015l-1.369,9.907C100.75,278.621,96.631,277.901,92.697,277.057z
	 M89.212,156.76l-1.738-9.848c3.657-0.646,7.636-1.241,12.166-1.82l1.267,9.92C96.537,155.571,92.711,156.143,89.212,156.76z
	 M117.258,280.496l0.733-9.973c3.843,0.282,7.8,0.455,11.762,0.515l-0.149,9.998C125.447,280.974,121.294,280.793,117.258,280.496z
	 M112.781,153.655l-1.043-9.946c2.348-0.246,4.7-0.484,7.044-0.722l4.967-0.507l1.028,9.947l-4.986,0.509
	C117.457,153.172,115.118,153.409,112.781,153.655z M141.945,280.878l-0.406-9.992c3.918-0.158,7.876-0.427,11.766-0.796
	l0.947,9.954C150.182,280.431,146.042,280.712,141.945,280.878z M136.866,151.079l-1.23-9.924c4.443-0.551,8.267-1.109,11.69-1.708
	l1.723,9.85C145.46,149.926,141.475,150.508,136.866,151.079z M166.504,278.537l-1.495-9.888c2.485-0.376,4.977-0.799,7.408-1.258
	c1.398-0.263,2.789-0.542,4.175-0.834l2.066,9.785c-1.458,0.308-2.922,0.6-4.388,0.876
	C171.722,277.699,169.109,278.142,166.504,278.537z M158.6,136.952c0.944-0.267,1.868-0.545,2.767-0.84
	c2.104-0.687,4.456-1.824,6.989-3.382l5.238,8.518c-3.249,1.998-6.234,3.428-9.124,4.37c-1,0.327-2.062,0.649-3.154,0.957
	L158.6,136.952z M188.008,263.78c3.817-1.057,7.577-2.236,11.177-3.506l3.325,9.432c-3.816,1.346-7.797,2.594-11.834,3.711
	L188.008,263.78z M177.541,126.02c2.583-2.125,5.403-4.597,8.875-7.781l6.758,7.37c-3.607,3.308-6.556,5.892-9.28,8.134
	L177.541,126.02z M209.92,255.963c3.369-1.572,6.783-3.403,10.147-5.442l5.184,8.552c-3.671,2.226-7.407,4.228-11.103,5.953
	L209.92,255.963z M195.192,110.043c2.99-2.814,5.919-5.564,8.888-8.273l6.741,7.386c-2.917,2.662-5.815,5.383-8.776,8.17
	L195.192,110.043z M229.69,244.04c3.027-2.242,6.086-4.706,9.091-7.322l6.565,7.544c-3.203,2.787-6.468,5.416-9.705,7.813
	L229.69,244.04z M213.302,93.654c3.454-2.903,6.651-5.413,9.771-7.675l5.869,8.097c-2.925,2.121-5.937,4.487-9.206,7.234
	L213.302,93.654z M247.361,228.715c2.696-2.684,5.42-5.561,8.096-8.552l7.453,6.666c-2.804,3.134-5.662,6.153-8.494,8.973
	L247.361,228.715z M233.671,79.118c3.982-2.249,7.926-4.07,11.72-5.413l3.337,9.426c-3.249,1.151-6.661,2.73-10.141,4.695
	L233.671,79.118z M263.106,211.159c2.426-3.001,4.86-6.157,7.237-9.38l8.048,5.936c-2.464,3.34-4.989,6.613-7.507,9.729
	L263.106,211.159z M277.197,192.087c2.184-3.22,4.37-6.571,6.498-9.962l8.47,5.318c-2.191,3.489-4.442,6.94-6.692,10.257
	L277.197,192.087z M259.239,80.754l-0.903-9.96c4.558-0.412,9.098-0.142,13.495,0.804l-2.104,9.776
	C266.319,80.641,262.79,80.432,259.239,80.754z M289.858,171.938c1.972-3.383,3.937-6.879,5.842-10.391l8.79,4.768
	c-1.954,3.602-3.97,7.188-5.993,10.658L289.858,171.938z M279.664,85.071l4.698-8.828c3.845,2.046,7.492,4.561,10.84,7.476
	l-6.565,7.542C285.859,88.844,282.84,86.761,279.664,85.071z M301.234,150.973l0.471-0.936c1.479-2.946,2.627-6.057,3.415-9.251
	l9.709,2.393c-0.965,3.917-2.374,7.733-4.186,11.342l-0.485,0.964L301.234,150.973z M296.085,99.313l8.019-5.974
	c2.604,3.495,4.852,7.278,6.681,11.244l-9.081,4.188C300.165,105.435,298.274,102.253,296.085,99.313z M306.431,130.024
	c0.011-3.599-0.396-7.271-1.199-10.855l9.758-2.184c0.965,4.314,1.454,8.728,1.44,13.071L306.431,130.024z"/>
<ellipse transform="matrix(0.6231 0.7821 -0.7821 0.6231 199.8611 -150.8444)" cx="256.445" cy="131.951" rx="26.562" ry="29.102"/>
<ellipse transform="matrix(0.246 0.9693 -0.9693 0.246 283.6356 55.8892)" cx="105.896" cy="210.244" rx="31.078" ry="35.703"/>
</svg>
