<?xml version="1.0" encoding="utf-8"?>
<!-- Generator: Adobe Illustrator 16.0.0, SVG Export Plug-In . SVG Version: 6.00 Build 0)  -->
<!DOCTYPE svg PUBLIC "-//W3C//DTD SVG 1.1//EN" "http://www.w3.org/Graphics/SVG/1.1/DTD/svg11.dtd">
<svg version="1.1" id="Calque_1" xmlns="http://www.w3.org/2000/svg" xmlns:xlink="http://www.w3.org/1999/xlink" x="0px" y="0px"
	 width="100px" height="100px" viewBox="0 0 100 100" enable-background="new 0 0 100 100" xml:space="preserve">
<g>
	<path fill="#FFFFFF" d="M20.799,57.271L2.404,3.271h14.19l10.774,37.183h0.263L38.405,3.271h14.189L34.2,57.271L21.003,96.82H6.726
		L20.799,57.271z"/>
	<path fill="#FFFFFF" d="M51.459,25.344c0-15.241,11.562-22.862,22.467-22.862s22.468,8.231,22.468,21.371H82.991
		c0-4.443-4.204-7.969-9.065-7.969s-9.066,3.181-9.066,9.46c0,2.143,18.222,59.169,18.222,59.169V57.142h-3.502V45.315h16.814
		v52.294H73.926C73.926,97.609,51.459,28.933,51.459,25.344z"/>
	<polygon fill="#FFFFFF" points="55.322,57.141 59.505,70.452 36.004,70.452 40.172,57.141 	"/>
	<path fill="#FFFFFF" d="M89.725,26.845c-4.199,0-7.604,3.404-7.604,7.604s3.404,7.604,7.604,7.604s7.604-3.404,7.604-7.604
		S93.924,26.845,89.725,26.845z M89.725,37.666c-1.776,0-3.217-1.44-3.217-3.217s1.44-3.217,3.217-3.217s3.217,1.44,3.217,3.217
		S91.501,37.666,89.725,37.666z"/>
</g>
</svg>
